<svg xmlns="http://www.w3.org/2000/svg" width="185" height="60" viewBox="0 0 185 60" version="1.1"><path d="M 27.294 4.265 C 23.480 8.284, 21.373 12.394, 20.491 17.535 C 19.040 25.994, 17.870 29.406, 16.931 27.922 C 16.436 27.140, 16.024 24.959, 16.015 23.076 L 16 19.651 13.525 21.976 C 9.775 25.499, 7.585 32.084, 8.656 36.614 C 9.760 41.282, 12 42.349, 12 38.206 C 12 34.687, 14.143 32.593, 16.860 33.455 C 19.559 34.312, 20.317 36.867, 18.635 39.434 C 17.497 41.171, 17.466 41.916, 18.473 43.293 C 20.170 45.615, 20.999 45.437, 21.005 42.750 C 21.008 41.513, 22.119 38.700, 23.474 36.500 C 25.319 33.505, 25.965 30.993, 26.048 26.500 C 26.108 23.200, 26.375 21.175, 26.640 22 C 27.892 25.890, 31.423 33, 32.104 33 C 32.522 33, 33.162 32.066, 33.524 30.925 C 34.601 27.531, 35.048 29.347, 34.019 32.935 C 33.379 35.164, 33.450 37.654, 34.236 40.593 C 35.337 44.709, 35.500 44.858, 37.208 43.311 C 38.869 41.808, 38.886 41.532, 37.418 39.909 C 35.448 37.732, 36.331 34.347, 39.099 33.469 C 41.854 32.594, 44 34.669, 44 38.206 C 44 43.555, 46.477 40.742, 46.808 35.018 C 47.158 28.947, 45.901 25.195, 42.420 21.924 L 40 19.651 40 22.767 C 40 24.480, 39.550 26.160, 39 26.500 C 38.382 26.882, 37.994 25.090, 37.985 21.809 C 37.967 15.515, 36.559 12.490, 34.932 15.250 C 33.397 17.855, 32.155 17.393, 30.315 13.535 C 28.906 10.579, 28.845 9.462, 29.901 5.937 C 30.582 3.665, 30.964 1.631, 30.751 1.418 C 30.538 1.204, 28.982 2.486, 27.294 4.265 M 16.097 8.383 C 15.208 9.454, 15.314 9.906, 16.565 10.386 C 18.710 11.210, 20.048 10.288, 19.349 8.468 C 18.644 6.629, 17.576 6.601, 16.097 8.383 M 35.909 9.093 C 34.697 9.873, 34.697 10.127, 35.909 10.907 C 37.415 11.877, 40 11.303, 40 10 C 40 8.697, 37.415 8.123, 35.909 9.093 M 24.732 39.759 C 22.575 46.761, 22.569 47.426, 24.645 49.502 C 26.656 51.513, 27.961 50.024, 27.985 45.691 C 27.995 43.890, 28.398 43.128, 29.110 43.568 C 29.760 43.970, 29.994 45.652, 29.673 47.627 C 29.053 51.448, 29.229 51.629, 31.429 49.429 C 33.852 47.006, 33.307 43.255, 29.830 38.413 C 28.087 35.986, 26.625 34.004, 26.580 34.009 C 26.536 34.013, 25.704 36.601, 24.732 39.759 M 53.105 51.373 C 52.478 52.129, 52.219 53.407, 52.529 54.214 C 52.984 55.400, 55.890 55.713, 67.700 55.846 C 75.735 55.937, 82.817 56.433, 83.438 56.949 C 84.831 58.105, 87.500 56.618, 86.612 55.181 C 86.257 54.607, 86.425 53.856, 86.984 53.510 C 89.235 52.119, 87.783 51.008, 84.279 51.442 C 82.233 51.696, 80.265 51.429, 79.907 50.849 C 79.477 50.153, 78.615 50.118, 77.377 50.746 C 74.887 52.011, 57 52.195, 57 50.956 C 57 49.526, 54.408 49.804, 53.105 51.373 M 89 52.883 C 89 54.598, 89.450 56, 90 56 C 90.550 56, 91 55.495, 91 54.878 C 91 54.062, 91.380 54.070, 92.389 54.908 C 93.250 55.623, 97.322 56.004, 103.115 55.911 C 110.436 55.794, 112.729 55.410, 113.729 54.131 C 114.892 52.644, 114.956 52.643, 114.446 54.119 C 114.076 55.190, 114.582 55.919, 115.942 56.275 C 118.279 56.886, 119.886 55.165, 118.043 54.026 C 117.375 53.614, 116.868 52.914, 116.915 52.472 C 116.962 52.029, 115.313 51.674, 113.250 51.682 C 111.188 51.691, 109.203 51.243, 108.841 50.687 C 108.435 50.064, 107.515 50.343, 106.445 51.412 C 105.491 52.367, 104.437 52.777, 104.105 52.324 C 103.772 51.871, 101.475 51.438, 99 51.362 C 96.525 51.285, 93.263 50.895, 91.750 50.495 C 89.182 49.815, 89 49.974, 89 52.883 M 120.787 53 C 120.486 55.047, 120.768 56, 121.673 56 C 122.403 56, 123 55.460, 123 54.800 C 123 53.867, 123.267 53.867, 124.200 54.800 C 124.885 55.485, 128.209 56.007, 131.950 56.015 C 135.553 56.024, 139.134 56.432, 139.909 56.923 C 142.094 58.306, 143.691 57.172, 143.776 54.177 C 143.849 51.623, 143.605 51.465, 139.927 51.671 C 137.767 51.791, 136 51.465, 136 50.945 C 136 50.425, 135.100 50, 134 50 C 132.900 50, 132 50.354, 132 50.787 C 132 51.974, 126.225 52.173, 125.507 51.011 C 124.120 48.767, 121.229 49.985, 120.787 53 M 145.630 52.250 C 145.299 53.487, 145.021 54.780, 145.014 55.123 C 145.006 55.465, 153.100 55.750, 163 55.755 L 181 55.765 180.985 52.633 C 180.976 50.910, 180.639 49.994, 180.235 50.599 C 179.831 51.203, 177.700 51.697, 175.500 51.697 C 173.300 51.697, 171.169 51.203, 170.765 50.599 C 170.263 49.847, 170.026 49.837, 170.015 50.568 C 170.005 51.258, 166.107 51.647, 159 51.666 C 152.950 51.682, 148 51.314, 148 50.848 C 148 49.049, 146.203 50.112, 145.630 52.250 M 54.639 51.694 C 53.513 52.820, 53.954 54, 55.500 54 C 56.325 54, 57 53.577, 57 53.059 C 57 51.798, 55.438 50.895, 54.639 51.694 M 74 54 C 74 54.733, 74.300 55.033, 74.667 54.667 C 75.033 54.300, 75.033 53.700, 74.667 53.333 C 74.300 52.967, 74 53.267, 74 54" stroke="none" fill="#e34007" fill-rule="evenodd"/><path d="M 90.272 5.668 C 87.347 6.864, 87.136 7.228, 88.022 9.559 C 89.292 12.897, 89.293 39.098, 88.025 42.435 C 87.067 44.955, 87.130 45, 91.584 45 C 94.976 45, 95.914 44.685, 95.309 43.750 C 94.864 43.063, 94.275 33.916, 94 23.424 L 93.500 4.349 90.272 5.668 M 53.916 8.844 C 55.278 11.388, 55.367 38.905, 54.025 42.435 L 53.050 45 62.313 45 C 69.931 45, 72.369 44.600, 76.038 42.750 C 79.666 40.920, 80.672 39.804, 81.421 36.773 C 82.573 32.110, 81.152 28.671, 77.041 26.171 L 74.040 24.346 77.020 22.143 C 81.036 19.174, 81.222 13.498, 77.422 9.924 C 75.074 7.716, 73.864 7.470, 63.838 7.159 C 53.049 6.825, 52.854 6.859, 53.916 8.844 M 61 16 L 61 23 65.500 23 C 70.836 23, 74 20.459, 74 16.174 C 74 12.005, 70.308 9, 65.186 9 L 61 9 61 16 M 10.233 15.238 C 9.508 16.124, 9.592 16.860, 10.513 17.708 C 11.541 18.654, 12.063 18.629, 12.925 17.590 C 13.738 16.611, 13.665 15.967, 12.645 15.120 C 11.601 14.254, 11.014 14.283, 10.233 15.238 M 42.097 15.383 C 41.205 16.458, 41.327 16.911, 42.642 17.416 C 44.625 18.177, 46.525 16.658, 45.554 15.087 C 44.647 13.619, 43.478 13.719, 42.097 15.383 M 103.923 19.923 C 101.121 22.725, 100.152 25, 101.759 25 C 102.177 25, 103.081 24.100, 103.768 23 C 104.660 21.571, 106.100 21, 108.808 21 C 113.589 21, 115 22.413, 115 27.200 C 115 30.600, 114.733 31, 112.468 31 C 105.541 31, 100.053 36.089, 101.360 41.300 C 102.479 45.757, 110.926 47.204, 114.026 43.469 C 114.934 42.375, 115.483 42.483, 117.067 44.067 C 119.387 46.387, 120.034 46.441, 122.559 44.532 C 124.315 43.203, 124.333 43.061, 122.750 43.032 C 121.201 43.004, 121 41.841, 121 32.923 C 121 23.119, 120.921 22.767, 118.077 19.923 C 113.961 15.807, 108.039 15.807, 103.923 19.923 M 128.630 19.250 C 128.299 20.488, 128.021 22.608, 128.014 23.962 C 128 26.391, 128.037 26.381, 130.750 23.199 C 132.908 20.668, 134.549 19.835, 138.372 19.334 L 143.244 18.695 135.122 30.818 C 130.655 37.486, 127 43.404, 127 43.971 C 127 44.613, 131.090 45, 137.895 45 L 148.790 45 149.176 40.948 C 149.671 35.759, 149.114 35.283, 146.868 38.977 C 144.899 42.215, 142.059 43.325, 137.020 42.824 L 133.764 42.500 141.807 30.341 C 146.230 23.654, 149.583 17.916, 149.258 17.591 C 148.933 17.266, 144.294 17, 138.950 17 C 129.719 17, 129.203 17.112, 128.630 19.250 M 160.299 18.960 C 156.088 21.527, 153.652 26.384, 153.632 32.254 C 153.612 38.002, 155.991 41.687, 161.481 44.412 C 164.980 46.149, 165.704 46.194, 169.384 44.912 C 171.935 44.023, 174.283 42.238, 175.725 40.091 C 177.985 36.727, 177.934 34.015, 175.668 37.088 C 173.664 39.808, 169.969 41.217, 166.532 40.572 C 162.355 39.788, 160.352 37.522, 159.164 32.235 L 158.213 28 167.606 28 C 176.688 28, 176.999 27.925, 176.978 25.750 C 176.966 24.512, 176.178 22.540, 175.228 21.367 C 171.420 16.666, 165.599 15.727, 160.299 18.960 M 163 19.694 C 161.094 20.375, 159 22.991, 159 24.691 C 159 25.624, 160.723 26, 165 26 C 171.823 26, 172.804 24.564, 168.365 21.073 C 165.592 18.892, 165.390 18.840, 163 19.694 M 61.209 33.615 C 61.486 42.084, 61.610 42.516, 63.852 42.833 C 70.205 43.732, 75 40.008, 75 34.174 C 75 29.060, 71.692 25.945, 65.521 25.250 L 60.918 24.731 61.209 33.615 M 109.165 34.597 C 106.094 36.748, 106.502 41.358, 109.805 41.827 C 113.089 42.292, 115 40.288, 115 36.378 C 115 32.514, 113.007 31.906, 109.165 34.597 M 13.362 35.500 C 12.464 37.839, 13.731 40, 16 40 C 18.544 40, 19.651 37.489, 17.989 35.487 C 16.402 33.574, 14.098 33.580, 13.362 35.500 M 38.046 35.444 C 36.231 37.632, 37.525 40.206, 40.246 39.820 C 41.894 39.586, 42.500 38.832, 42.500 37.014 C 42.500 34.096, 39.920 33.187, 38.046 35.444 M 11 42.501 C 8.767 45.191, 8.571 52.248, 10.657 54.825 C 14.018 58.976, 26 59.097, 26 54.981 C 26 53.515, 25.285 52.970, 23.250 52.884 C 21.456 52.808, 21.128 52.605, 22.305 52.300 C 24.912 51.624, 23.758 49.466, 20.907 49.685 C 19.446 49.798, 19.188 49.670, 20.250 49.362 C 22.506 48.706, 22.556 48.859, 18.679 44.626 C 15.101 40.720, 12.968 40.129, 11 42.501 M 37.184 44.596 C 33.461 48.802, 33.490 48.705, 35.750 49.362 C 36.812 49.670, 36.554 49.798, 35.093 49.685 C 32.242 49.466, 31.088 51.624, 33.695 52.300 C 34.872 52.605, 34.544 52.808, 32.750 52.884 C 30.759 52.968, 30 53.523, 30 54.893 C 30 57.124, 31.870 58, 36.631 58 C 44.132 58, 47.986 53.678, 46.612 46.809 C 45.259 40.046, 41.909 39.260, 37.184 44.596 M 16.226 51.579 C 17.176 52.570, 18.168 53.166, 18.431 52.903 C 18.694 52.640, 17.917 51.829, 16.705 51.100 C 14.598 49.835, 14.577 49.857, 16.226 51.579 M 38 51.583 C 36.319 52.516, 36.033 52.975, 37.128 52.985 C 38.023 52.993, 39.315 52.325, 40 51.500 C 41.460 49.740, 41.310 49.747, 38 51.583" stroke="none" fill="#0c2c41" fill-rule="evenodd"/></svg>